PathFileType	4	(X/Y/Z)	c:\Git\powerlifing_model_clean\simulations\HC835B\Session1\HC835B_OGW_0005\marker_experimental.trc
DataRate	CameraRate	NumFrames	NumMarkers	Units	OrigDataRate	OrigDataStartFrame	OrigNumFrames
240.000000	240.000000	4	38	mm	240.000000	365	418
Frame#	Time	RPSI			LPSI			RASI			LASI			RTH1			RTH2			RTH3			RTH4			RSK1			RSK2			RSK3			RSK4			RCAL1			RCAL2			RCAL3			RST			RPT			RTN			RFMB			RSMB			RVMB			RFMH			RSMH			RVMH			RPM			LTH1			LTH2			LTH3			LTH4			LSK1			LSK2			LSK3			LSK4			LCAL1			LCAL2			LCAL3			LFMH			LVMH			
		X1	Y1	Z1	X2	Y2	Z2	X3	Y3	Z3	X4	Y4	Z4	X5	Y5	Z5	X6	Y6	Z6	X7	Y7	Z7	X8	Y8	Z8	X9	Y9	Z9	X10	Y10	Z10	X11	Y11	Z11	X12	Y12	Z12	X13	Y13	Z13	X14	Y14	Z14	X15	Y15	Z15	X16	Y16	Z16	X17	Y17	Z17	X18	Y18	Z18	X19	Y19	Z19	X20	Y20	Z20	X21	Y21	Z21	X22	Y22	Z22	X23	Y23	Z23	X24	Y24	Z24	X25	Y25	Z25	X26	Y26	Z26	X27	Y27	Z27	X28	Y28	Z28	X29	Y29	Z29	X30	Y30	Z30	X31	Y31	Z31	X32	Y32	Z32	X33	Y33	Z33	X34	Y34	Z34	X35	Y35	Z35	X36	Y36	Z36	X37	Y37	Z37	X38	Y38	Z38	

366	1.520833333333333	442.7926025390626	1125.628662109375	10.50727367401123	549.3746948242189	1113.089599609375	12.12416362762452	365.1756896972657	1076.127075195313	213.840072631836	611.4169921875001	1068.55712890625	222.1625518798829	311.9258728027344	813.5334472656252	83.95445251464845	326.0899963378907	788.8589477539065	138.1381530761719	329.0849914550782	730.4221191406251	87.25320434570314	353.4982910156251	708.3419189453126	136.333724975586	398.8336791992189	311.3103637695313	-123.7352294921875	394.2855529785157	280.9414978027344	-70.25781250000001	404.6067199707032	253.5647583007813	-123.0960083007813	414.0599670410157	225.1067047119141	-70.66712951660158	477.4779357910157	111.8813705444336	-215.0476837158204	508.0887756347657	72.66543579101564	-206.2854309082032	444.6306457519532	75.87940216064455	-217.9303283691407	513.9602661132814	80.66472625732423	-136.1383819580078	413.8342285156251	82.6851272583008	-161.2315368652344	494.1136169433595	95.76332855224611	-80.58812713623048	484.0658569335939	78.15406799316408	-50.53219604492189	435.4982299804689	102.6446762084961	-46.45156478881837	397.0961914062501	54.41792297363283	-121.9114532470703	476.8528137207032	51.72165298461915	0.4821035861968995	422.2205810546876	64.26909637451173	8.016184806823732	368.4600219726563	43.51200866699219	-48.40211486816408	425.9834899902345	47.04697799682618	67.79827880859376	683.0252075195314	794.8880615234377	216.6013793945313	676.7568359375001	805.1900634765627	276.0892639160157	678.4340209960939	724.7924194335939	265.6466674804688	657.2562255859376	735.5095825195314	322.5118713378907	654.8291625976564	300.2048339843751	392.0826110839845	665.2067871093751	306.3108825683594	443.8897705078126	656.2709350585939	258.6691589355469	430.7723388671876	651.8203125000001	269.3795471191407	486.029998779297	598.0768432617189	101.1699905395508	457.4081115722657	627.3350219726564	66.38735961914064	470.1170654296876	568.6687622070314	72.27009582519533	477.2447814941407	591.1797485351564	171.0894622802735	673.1183471679689	688.2371826171876	122.1198272705078	645.2807617187501	
367	1.525	443.1739196777345	1124.003662109375	17.69986724853516	549.5722656250001	1111.41455078125	19.58520317077637	364.8040161132813	1074.535034179688	220.9063262939454	611.2042846679689	1067.03125	229.6472167968751	311.8729858398438	812.699645996094	89.51476287841798	325.8428955078126	787.6270751953127	143.5203704833985	328.9706726074219	729.6633300781251	92.41091918945314	353.1305847167969	707.2526855468751	141.4386291503907	398.6497802734376	311.9169921875001	-121.2649002075196	394.0652160644532	281.0572814941407	-68.15268707275392	404.7053222656251	253.8420562744141	-121.5621795654297	413.9378356933595	225.2210235595704	-69.21584320068361	477.2896118164064	113.0633392333985	-214.4700164794922	507.9045715332032	73.83231353759767	-205.9995574951172	444.4273681640626	77.06134033203126	-217.5109863281251	513.8002319335939	81.45237731933595	-135.8143920898438	413.6433105468751	83.53011322021486	-160.8649444580078	493.966766357422	96.23545837402347	-80.16091918945314	483.8955078125001	78.39058685302736	-50.23379516601564	435.2727966308595	102.7282485961914	-46.02514266967774	396.936492919922	54.77888488769533	-121.7386856079102	476.7457885742189	51.69795227050783	0.612365484237671	422.0809326171876	64.05904388427736	8.16804885864258	368.3961181640626	43.48295974731446	-48.38026046752931	425.9114990234376	46.84067153930665	67.91310882568361	684.2275390625001	792.4777832031252	222.2754821777344	676.9052124023439	802.1389160156252	281.7042541503907	678.5673828125001	721.7933959960939	270.5593872070313	656.8437500000001	732.1761474609376	327.2846679687501	654.0675048828126	299.0328369140626	402.808807373047	664.5723876953126	306.3355102539063	454.5154418945314	655.3198242187501	258.3453674316407	442.287078857422	650.8993530273439	270.1339111328126	497.3416442871095	596.4919433593751	100.9263153076172	472.3237915039064	625.8540649414064	66.56961059570314	485.687225341797	567.2116088867189	72.56963348388673	492.9239501953126	590.1203002929689	175.684066772461	686.3501586914064	687.4392700195314	126.1698760986328	659.3614501953126	
368	1.529166666666667	443.5157165527345	1122.418334960938	24.91782951354981	549.9160156250001	1109.93505859375	26.80559158325196	364.5073242187501	1073.143188476563	227.9441833496094	610.9409179687501	1065.530883789063	237.1031951904297	311.7432861328126	811.8882446289065	95.18063354492189	325.5406494140626	786.5474853515627	149.1311187744141	328.7537841796876	728.9243164062501	97.74930572509768	352.6547241210938	706.1436767578126	146.8322296142578	398.5170898437501	312.5642089843751	-119.0171051025391	393.943572998047	281.1777648925782	-66.20997619628908	404.1686096191407	254.8846893310547	-119.4470138549805	413.8939514160157	225.0560150146485	-67.5030975341797	476.9918212890626	114.2601470947266	-213.8434600830079	507.6793823242189	75.13730621337892	-205.7035827636719	444.2625122070314	78.38183593750001	-217.2086334228516	513.6026000976564	82.35623168945314	-135.4463348388672	413.3740539550782	84.39707183837892	-160.4087371826172	493.8040466308595	96.74066925048831	-79.70230102539064	483.6957092285157	78.62601470947267	-49.92336273193361	435.1036987304689	102.7865524291992	-45.61176300048829	396.8049316406251	55.22518539428712	-121.5075454711914	476.6541137695314	51.68561935424806	0.717168152332306	421.8924560546876	63.87811279296876	8.357479095458986	368.3281250000001	43.4318962097168	-48.34214782714845	425.7971801757814	46.57791900634766	68.0176239013672	685.0688476562501	789.919616699219	228.1443023681641	676.9367675781251	799.492126464844	287.5118713378907	678.8045043945314	719.1746215820314	276.1145019531251	656.7110595703126	729.3347167968751	332.7559509277344	653.1284790039064	297.7716369628907	412.8974609375001	663.5919799804689	305.9995422363282	464.5047607421876	654.2246704101564	257.7963867187501	453.1118774414064	649.8878784179689	270.6140441894532	507.9659729003907	594.6588745117189	100.5443115234375	486.1526794433595	623.7869873046876	66.36813354492189	500.2709045410157	565.2510986328126	72.8651809692383	507.5874938964845	589.2980957031251	179.9965515136719	698.7044067382814	686.3079223632814	129.3391265869141	672.3966064453126	
369	1.533333333333333	443.8229370117189	1120.903442382813	32.20171356201173	550.1750488281251	1108.557983398438	34.0506935119629	364.2324829101563	1071.767944335938	235.1155242919922	610.6129760742189	1064.127563476563	244.4762268066407	311.6363830566407	811.002868652344	100.9661407470703	325.1564636230469	785.4822387695315	154.8401489257813	328.5296630859376	727.8471069335939	103.1145172119141	352.1533813476563	704.9267578125001	152.2492828369141	398.3383178710939	313.2196655273438	-116.6089477539063	393.794647216797	281.2255249023438	-63.95704269409181	404.2078857421876	255.5529937744141	-117.7113876342774	413.6181945800782	225.3312072753907	-65.91088867187501	476.7891540527345	115.7398147583008	-213.1122131347657	507.4101562500001	76.53012847900392	-205.3611450195313	443.9609985351564	79.61689758300783	-216.8331756591797	513.3873901367189	83.2997512817383	-135.1309356689453	413.0530700683595	85.1614456176758	-159.9673919677735	493.5582580566407	97.18500518798831	-79.27429199218751	483.5103454589845	78.90147399902345	-49.5946388244629	434.8287963867189	102.8727493286133	-45.12847137451173	396.6040039062501	55.70532989501955	-121.2786712646485	476.575897216797	51.6798553466797	0.8481761217117312	421.7204589843751	63.68101882934572	8.566860198974611	368.2400207519532	43.41573333740235	-48.30101394653322	425.6937255859376	46.34716033935548	68.12457275390626	686.0687255859376	787.6668090820315	234.6122741699219	677.0784912109376	797.3271484375002	293.8346252441407	678.9388427734376	716.9870605468751	282.6185607910157	656.7257690429689	727.3564453125001	339.1676330566407	652.0818481445314	296.4886474609376	422.3578186035157	662.6246948242189	305.4290466308594	473.8109436035157	652.9746704101564	257.1248779296876	463.1245422363282	648.9087524414064	270.7922973632813	517.8358154296876	592.6992187500001	100.2458877563477	498.757293701172	621.3410034179689	65.82173156738283	513.7604980468751	562.8330688476564	73.24690246582033	521.1888427734376	588.6779785156251	184.2705535888672	709.8609008789064	685.0214233398439	131.6471405029297	684.4182739257814	
